HIERARCHY
ROOT hip
{
	OFFSET 0.000000 0.000000 0.000000 
	CHANNELS 6 Xposition Yposition Zposition Xrotation Zrotation Yrotation
	JOINT abdomen
	{
		OFFSET 0.000000 3.402643 0.000000 
		CHANNELS 3 Xrotation Zrotation Yrotation
		JOINT chest
		{
			OFFSET 0.000000 8.438565 -0.680529 
			CHANNELS 3 Xrotation Zrotation Yrotation
			JOINT neck
			{
				OFFSET 0.000000 10.207942 -0.272212 
				CHANNELS 3 Xrotation Zrotation Yrotation
				JOINT head
				{
					OFFSET 0.000000 3.130431 0.000000 
					CHANNELS 3 Xrotation Zrotation Yrotation
					End Site
					{
						OFFSET 0.000000 3.130435 0.000000 
					}
				}
			}
			JOINT lCollar
			{
				OFFSET 3.470700 6.669187 -0.816635 
				CHANNELS 3 Yrotation Zrotation Xrotation
				JOINT lShldr
				{
					OFFSET 3.198488 0.000000 0.000000 
					CHANNELS 3 Zrotation Yrotation Xrotation
					JOINT lForeArm
					{
						OFFSET 10.139888 0.000000 0.000000 
						CHANNELS 3 Yrotation Zrotation Xrotation
						JOINT lHand
						{
							OFFSET 8.370511 0.000000 0.000000 
							CHANNELS 3 Zrotation Yrotation Xrotation
							End Site
							{
								OFFSET 4.083176 0.000000 0.000000 
							}
						}
					}
				}
			}
			JOINT rCollar
			{
				OFFSET -3.470700 6.669187 -0.816635 
				CHANNELS 3 Yrotation Zrotation Xrotation
				JOINT rShldr
				{
					OFFSET -3.198488 0.000000 0.000000 
					CHANNELS 3 Zrotation Yrotation Xrotation
					JOINT rForeArm
					{
						OFFSET -10.139888 0.000000 0.000000 
						CHANNELS 3 Yrotation Zrotation Xrotation
						JOINT rHand
						{
							OFFSET -8.370511 0.000000 0.000000 
							CHANNELS 3 Zrotation Yrotation Xrotation
							End Site
							{
								OFFSET -4.083176 0.000000 0.000000 
							}
						}
					}
				}
			}
		}
	}
	JOINT lThigh
	{
		OFFSET 5.308129 -1.633274 1.361059 
		CHANNELS 3 Xrotation Zrotation Yrotation
		JOINT lShin
		{
			OFFSET -2.041588 -20.007561 0.000000 
			CHANNELS 3 Xrotation Zrotation Yrotation
			JOINT lFoot
			{
				OFFSET 0.000000 -19.190928 -1.224953 
				CHANNELS 3 Xrotation Yrotation Zrotation
				End Site
				{
					OFFSET 0.000000 -2.449906 4.627600 
				}
			}
		}
	}
	JOINT rThigh
	{
		OFFSET -5.308129 -1.633274 1.361059 
		CHANNELS 3 Xrotation Zrotation Yrotation
		JOINT rShin
		{
			OFFSET 2.041588 -20.007561 0.000000 
			CHANNELS 3 Xrotation Zrotation Yrotation
			JOINT rFoot
			{
				OFFSET 0.000000 -19.190928 -1.224953 
				CHANNELS 3 Xrotation Yrotation Zrotation
				End Site
				{
					OFFSET 0.000000 -2.449906 4.627600 
				}
			}
		}
	}
}
MOTION
Frames: 11
Frame Time: 0.016667
9.205098 52.513306 -1.118460 -10.251938 -2.542755 48.677059 28.259329 8.693183 4.201822 -0.551314 4.671648 -4.335551 -3.110991 6.373627 -0.172674 10.903366 -7.958990 44.464325 -16.274054 3.615681 0.189105 -75.870125 -4.934946 0.439790 -15.885417 -5.000000 30.217531 -10.441901 30.000000 45.000000 -0.975610 5.171402 -0.266374 74.777809 -19.663126 -39.859211 0.000000 5.000000 45.000000 29.107698 -14.645445 -20.388727 -8.230918 17.805326 15.228704 3.548374 -3.658534 -0.348245 2.804315 -3.791393 -8.661843 23.556904 -2.920324 -8.598969 11.164818 3.257454 0.703979 -1.944041 -24.016407 13.166283 
9.758145 52.630642 -1.081678 -10.586596 -2.618677 50.257423 28.377748 9.243445 4.308696 -0.581689 4.846594 -4.541763 -3.118000 6.551795 -0.170172 10.871584 -8.064598 44.677700 -16.117899 3.644938 0.190614 -77.239433 -5.569842 1.235220 -15.204549 -5.000000 31.147299 -9.695428 30.000000 45.000000 -0.730867 5.298184 -0.272943 75.329941 -19.996866 -41.471340 0.000000 5.000000 45.000000 27.928196 -13.892467 -21.688995 -8.026678 17.456787 14.205662 3.334429 -3.738084 -0.324348 2.659187 -4.549266 -7.718100 23.706274 -3.017400 -6.993664 11.534548 3.314364 0.743227 0.468911 -23.012283 13.097958 
10.311153 52.747993 -1.044924 -10.927475 -2.682307 51.837181 28.499577 9.798400 4.429976 -0.603146 5.021467 -4.747993 -3.116283 6.728506 -0.177278 10.848683 -8.169182 44.892620 -15.951982 3.674196 0.192124 -78.620003 -6.183489 2.039333 -14.531339 -5.000000 32.065903 -8.951117 30.000000 45.000000 -0.486156 5.415215 -0.279005 75.893250 -20.323828 -43.091290 0.000000 5.000000 45.000000 26.738670 -13.193578 -23.022675 -7.811334 17.103592 13.171623 3.118770 -3.756436 -0.309343 2.564332 -5.314163 -6.785208 23.854063 -3.095403 -5.373377 11.882784 3.374922 0.781251 2.886497 -22.050962 12.987763 
10.792181 52.868614 -1.024997 -11.305779 -2.873692 53.416931 28.615921 10.461086 4.596152 -0.642558 5.244747 -5.042806 -3.125207 6.826518 -0.182297 10.762034 -8.258766 45.203369 -15.649811 3.839990 0.200675 -79.980698 -6.593330 2.633370 -14.123218 -5.000000 33.151001 -7.595954 30.000000 45.000000 -0.026395 5.385962 -0.287212 76.488686 -20.673512 -44.658699 0.000000 5.000000 45.000000 26.081409 -12.360428 -24.088940 -7.576006 16.885376 12.068987 2.542504 -3.774334 -0.258892 2.742537 -5.821901 -6.011808 23.971687 -2.949190 -3.581950 11.903666 3.612159 0.871133 6.383784 -21.223358 13.293710 
11.255130 52.990055 -1.009288 -11.719630 -3.093046 54.991989 28.744547 11.158142 4.756182 -0.685311 5.467768 -5.358036 -3.143793 6.895563 -0.181764 10.657462 -8.335622 45.544266 -15.298944 4.035040 0.210733 -81.333725 -6.949470 3.180697 -13.779097 -5.000000 34.275639 -6.073515 30.000000 45.000000 0.471308 5.317609 -0.283676 77.090530 -21.010723 -45.000000 0.000000 5.000000 45.000000 25.548946 -11.489607 -25.103241 -7.333347 16.725616 10.937354 1.889568 -3.794305 -0.231990 3.002530 -6.277857 -5.285398 24.065443 -2.762714 -1.760985 11.827786 3.913352 0.969888 10.251838 -20.408371 13.681330 
11.679261 53.106560 -1.007580 -12.095236 -3.317396 56.442989 28.894197 11.816312 4.935644 -0.702394 5.661767 -5.593595 -3.173152 6.914875 -0.184683 10.600259 -8.295146 45.678093 -15.133471 4.369177 0.218427 -82.663834 -7.131516 3.447258 -13.623253 -5.000000 35.235813 -4.253973 30.000000 45.000000 1.017227 5.307937 -0.273448 77.607010 -21.260727 -45.000000 0.000000 5.000000 45.000000 25.119869 -10.856883 -25.777107 -7.117016 16.602722 9.939276 1.226191 -3.812728 -0.184656 3.231149 -6.684874 -4.750636 24.092339 -2.616412 -0.174519 11.753724 4.217007 1.058056 13.871062 -19.484129 14.157248 
12.045127 53.215637 -1.026882 -12.432880 -3.569889 57.704689 29.088413 12.419893 5.129188 -0.696805 5.797867 -5.663644 -3.213129 6.836174 -0.183758 10.616796 -8.066033 45.524422 -15.252825 4.905586 0.246075 -83.944298 -7.090334 3.287603 -13.771901 -5.000000 35.948956 -2.011262 30.000000 45.000000 1.623027 5.376205 -0.276985 77.983475 -21.400822 -45.000000 0.000000 5.000000 45.000000 24.860283 -10.515403 -25.953743 -6.913383 16.559200 9.138129 0.534182 -3.861813 -0.154125 3.347617 -7.002596 -4.439590 23.970196 -2.470254 1.054974 11.679540 4.531080 1.097944 17.259212 -18.463230 14.750693 
12.410964 53.324715 -1.046203 -12.769768 -3.811107 58.969341 29.286779 13.017986 5.333283 -0.680675 5.934016 -5.732784 -3.262890 6.767130 -0.183121 10.650176 -7.830178 45.362129 -15.372396 5.432241 0.274124 -85.215759 -7.061060 3.137714 -13.912858 -5.000000 36.661652 0.206619 30.000000 45.000000 2.228879 5.454225 -0.281026 78.354599 -21.530100 -45.000000 0.000000 5.000000 45.000000 24.595171 -10.184238 -26.116604 -6.718480 16.521315 8.325562 -0.148099 -3.916095 -0.104075 3.466326 -7.316185 -4.137150 23.874056 -2.362121 2.224427 11.597868 4.837795 1.195232 20.603598 -17.320080 15.290697 
12.700605 53.398804 -1.064745 -12.987709 -4.214083 59.904202 29.354435 13.454865 5.579578 -0.673236 6.061097 -5.625667 -3.200494 7.043305 -0.184486 10.772454 -7.593835 45.299309 -15.813829 5.832166 0.294787 -86.101509 -6.937737 2.819393 -14.112810 -5.000000 37.312180 1.961664 30.000000 45.000000 2.620539 5.659027 -0.291632 78.430229 -21.502880 -45.000000 0.000000 5.000000 45.000000 24.181780 -11.013813 -25.163305 -6.765740 16.584427 7.690902 -0.616125 -3.959840 -0.078984 3.532545 -7.520549 -3.893052 23.478836 -2.205537 2.921420 11.609778 5.036221 1.231972 22.959007 -16.394054 15.823904 
12.990186 53.472878 -1.083288 -13.212840 -4.617370 60.848476 29.414806 13.891464 5.828576 -0.656410 6.197933 -5.519611 -3.147717 7.329134 -0.188502 10.894217 -7.357105 45.238770 -16.265123 6.222339 0.314934 -86.978409 -6.816938 2.508348 -14.294545 -5.000000 37.975056 3.705341 30.000000 45.000000 3.022055 5.873582 -0.302739 78.505798 -21.485300 -45.000000 0.000000 5.000000 45.000000 23.753218 -11.816359 -24.204020 -6.845104 16.656914 7.034878 -1.064465 -4.006984 -0.093913 3.610884 -7.680470 -3.663758 23.102236 -2.059586 3.595496 11.591646 5.222572 1.284754 25.237471 -15.376071 16.296288 
13.247681 53.527206 -1.101012 -13.302293 -4.944228 61.672153 29.462482 14.145606 6.005805 -0.614484 6.286188 -5.392052 -3.034667 7.548823 -0.171479 10.999324 -7.094573 44.986805 -16.520739 6.524708 0.330534 -87.679695 -6.891253 2.539328 -14.430385 -5.000000 38.355652 4.918414 30.000000 45.000000 3.267634 6.136898 -0.316365 78.516617 -21.448614 -45.000000 0.000000 5.000000 45.000000 23.350351 -12.781689 -23.588406 -6.972825 16.601305 6.380994 -1.338055 -4.027189 -0.063592 3.603413 -7.758370 -3.340935 22.710003 -2.000829 4.084827 11.628240 5.377672 1.339911 27.139662 -14.635363 16.849785 
